<?xml version="1.0" standalone="no"?><!DOCTYPE svg PUBLIC "-//W3C//DTD SVG 1.1//EN" "http://www.w3.org/Graphics/SVG/1.1/DTD/svg11.dtd"><svg class="icon" width="200px" height="200.00px" viewBox="0 0 1024 1024" version="1.1" xmlns="http://www.w3.org/2000/svg"><path d="M755.43 458.49h7.22l-21.34-164.03h5.49l-29.78-163.87 5.49-1.77-74.45-107.3-84.6 108.91H460.45l-84.6-108.91-74.45 107.3 5.22 1.68-29.8 163.96h5.49l-21.34 164.03h7.24l-22.65 164.04h5.37l11.5 175.64h463.01l11.5-175.64h41.14z" fill="#F0EBE8" /><path d="M303.63 137.95L260.05 238.4l2.5 0.9-3.28 7.51-46.8 107.2 1.37 0.47-3.16 7.58-44.83 107.91 1.79 0.65-3.16 7.51 101.11 36.79 2.45-7.75v-0.06l34.99-111.43 1.37 0.48 2.33-7.81v-0.06l33.03-112.21 2.56 0.96 2.33-7.81v-0.06l31.12-104.99zM120.66 586.46l-3.16 7.45-20.69-7.51v0.06l20.69 7.51-21.82 51.99-10.79 25.87c-1.55 3.7-2.15 7.69-1.73 11.63l2.38 23.07c0.48 4.59 3.52 8.47 7.81 10.02l82.81 30.17 15.5-15.08c2.86-2.74 5.01-6.2 6.2-10.02l8.35-26.71 19.14-61.71 1.31 0.48 2.44-7.81 34.7-111.55-99.33-36.19-45.13 107.85 1.32 0.48zM779.1 365.81l-4.71-11.33 1.37-0.47-45.14-103.44-0.06-0.06-4.88-11.15v-0.06l2.56-0.9-42.03-96.7-61.83 22.48 29.99 101.05v0.06l3.52 11.75 2.5-0.9 31.9 108.27 3.46 11.75 1.37-0.48 33.74 107.55 89.73-32.61 1.79-0.65z" fill="#F0EBE8" /><path d="M820.59 470.62l-89.67 32.67 3.64 11.63 90.74-32.97v-0.06z" fill="#F0EBE8" /><path d="M903.34 671.84l-10.79-25.87-20.21-48.23h-0.06l-4.71-11.27 1.31-0.48-43.58-104.04-88.95 32.37L769.85 622l3.64 11.69 1.31-0.48 19.2 61.71 8.35 26.71c1.19 3.82 3.28 7.27 6.14 10.02l12.28 11.92 74.17-27.01c4.29-1.55 7.33-5.43 7.75-10.02l2.38-23.07c0.42-3.94-0.18-7.94-1.73-11.63z" fill="#F0EBE8" /><path d="M511.81 196.74h17.42v601.43h-17.42z" fill="#FFFCFA" /><path d="M511.96 202.71c-1.84 0-3.58-0.85-4.71-2.3L371.14 25.18a5.959 5.959 0 0 1 4.7-9.62h272.21c2.28 0 4.35 1.3 5.36 3.34 1 2.04 0.75 4.48-0.65 6.28L516.66 200.4a5.965 5.965 0 0 1-4.7 2.31zM388.03 27.48l123.93 159.54L635.88 27.48H388.03z" fill="#AF7575" /><path d="M511.96 804.14c-3.29 0-5.96-2.67-5.96-5.96V196.74c0-3.29 2.67-5.96 5.96-5.96s5.96 2.67 5.96 5.96v601.43c0 3.3-2.67 5.97-5.96 5.97zM532.21 792.98l-5.96-0.04v-23.89l5.96 0.04v23.89z m0-47.69l-5.96-0.04v-23.9l5.96 0.04v23.9z m0-47.7l-5.96-0.04v-23.89l5.96 0.04v23.89z m0-47.7l-5.96-0.04v-23.89l5.96 0.04v23.89z m0-47.69l-5.96-0.04v-23.89l5.96 0.04v23.89z m0-47.7l-5.96-0.04v-23.9l5.96 0.04v23.9z m0-47.69l-5.96-0.04v-23.89l5.96 0.04v23.89z m0-47.7l-5.96-0.04v-23.89l5.96 0.04v23.89z m0-47.69l-5.96-0.04v-23.9l5.96 0.04v23.9z m0-47.7l-5.96-0.04v-23.89l5.96 0.04v23.89z m0-47.7l-5.96-0.04v-23.89l5.96 0.04v23.89z m0-47.69l-5.96-0.04v-23.9l5.96 0.04v23.9z m0-47.7l-5.96-0.04V196.7l5.96 0.04v23.89zM398.53 975.14c-3.29 0-5.96-2.67-5.96-5.96V787.7c0-3.29 2.67-5.96 5.96-5.96s5.96 2.67 5.96 5.96v181.48c0 3.29-2.66 5.96-5.96 5.96zM617.23 1024c-3.29 0-5.96-2.67-5.96-5.96v-58.55c0-3.29 2.67-5.96 5.96-5.96s5.96 2.67 5.96 5.96v58.55c0.01 3.29-2.66 5.96-5.96 5.96zM617.23 934.04c-3.29 0-5.96-2.67-5.96-5.96v-25.21c0-3.29 2.67-5.96 5.96-5.96s5.96 2.67 5.96 5.96v25.21c0.01 3.29-2.66 5.96-5.96 5.96zM617.23 884.4c-3.29 0-5.96-2.67-5.96-5.96V787.7c0-3.29 2.67-5.96 5.96-5.96s5.96 2.67 5.96 5.96v90.74c0.01 3.29-2.66 5.96-5.96 5.96z" fill="#AF7575" /><path d="M944.62 669.54l-10.8-25.88-23.47-55.91c0.41-1.33 0.35-2.77-0.2-4.07l-46.57-111.26 0.03-0.06c0.65-1.49 0.67-3.18 0.05-4.68l-46.47-111.81c0.46-1.39 0.39-2.9-0.2-4.25l-48.02-109.93c0.19-0.28 0.36-0.58 0.5-0.9 0.67-1.51 0.67-3.24 0.01-4.76l-44.28-101.9a5.95 5.95 0 0 0 2.96-3.4c0.6-1.79 0.33-3.76-0.75-5.31l-74.45-107.3a5.952 5.952 0 0 0-4.74-2.56c-1.89-0.05-3.7 0.8-4.87 2.3l-131.4 169.16L380.56 17.86a5.937 5.937 0 0 0-4.87-2.3c-1.9 0.05-3.66 1-4.74 2.56l-74.45 107.3a5.967 5.967 0 0 0-0.75 5.31 5.996 5.996 0 0 0 3.02 3.44l-0.61 1.41-43.58 100.46a5.945 5.945 0 0 0 0 4.75c0.13 0.29 0.28 0.57 0.45 0.84l-48.02 110a5.915 5.915 0 0 0-0.2 4.24l-1.63 3.91-44.84 107.91c-0.62 1.5-0.6 3.19 0.05 4.68 0.01 0.02 0.02 0.03 0.03 0.05l-1.44 3.42-45.13 107.85a5.917 5.917 0 0 0-0.2 4.04l-1.64 3.87c-0.07 0.16-0.13 0.32-0.18 0.49l-21.66 51.59-10.78 25.86a29.594 29.594 0 0 0-2.16 14.55l2.38 23.07c0.71 6.8 5.31 12.7 11.7 15l93.14 33.93c1.97 0.71 4.03 1.06 6.06 1.06 4.62 0 9.16-1.77 12.52-5.07l16.61-16.13c3.59-3.44 6.28-7.78 7.76-12.54l8.35-26.72 11.61-37.41 9.12 139.29a5.961 5.961 0 0 0 5.95 5.57h498.78c3.14 0 5.74-2.43 5.95-5.57l9.19-140.32 11.96 38.45 8.35 26.71c1.5 4.81 4.17 9.15 7.67 12.51l16.61 16.14c3.38 3.31 7.93 5.09 12.55 5.09 2.04 0 4.1-0.35 6.07-1.06l93.17-33.92c6.47-2.33 11.04-8.26 11.66-15.01l2.38-23.07c0.52-4.92-0.23-9.95-2.15-14.55z m-137.78-307.5l43.41 104.46-26.98 9.79c-0.26 0.09-0.51 0.2-0.74 0.32l-55.78 20.27-4.48-32.43h0.38c1.71 0 3.35-0.74 4.48-2.03s1.65-3 1.43-4.7l-10.15-78.03 22.73-8.28 24.93-9.09 0.77-0.28z m-3.32-11.48l-46.69 17.01-8.75-67.29c3.12-0.69 5.16-3.72 4.58-6.88l-7.59-41.75 13.15-4.78 45.3 103.69zM756 234.93l-13.1 4.76-10.9-60 24 55.24zM647.79 31.59l65.22 93.99-1.06 0.39-183.43 59.17L647.79 31.59z m-271.67 0l119.27 153.55-182.57-58.9-1.89-0.69 65.19-93.96z m-64.87 106.77l0.02-0.09 198.86 64.15c0.05 0.02 0.1 0.02 0.15 0.04 0.2 0.06 0.4 0.11 0.6 0.14 0.08 0.02 0.17 0.03 0.25 0.04 0.27 0.04 0.55 0.06 0.82 0.06h0.02c0.28 0 0.55-0.03 0.82-0.06 0.08-0.01 0.17-0.03 0.25-0.05 0.2-0.04 0.4-0.08 0.6-0.14 0.05-0.01 0.1-0.02 0.15-0.04l52.33-16.88 146.25-47.18 0.03 0.14 19.14 105.32 2.18 11.97 5.94 32.71H432.5c-3.29 0-5.96 2.67-5.96 5.96s2.67 5.96 5.96 5.96H736.08l9.28 71.34 1.57 12.11 8.93 68.66h-0.13c-0.1-0.01-0.2-0.03-0.3-0.03H268.22c-0.11 0-0.21 0.02-0.31 0.03h-0.15l8.94-68.77 1.58-12.12 9.26-71.22h39.36c3.3 0 5.97-2.67 5.97-5.96s-2.67-5.96-5.97-5.96h-42.94l5.98-32.89 2.16-11.9 19.15-105.34z m-19.91 42.87l-10.6 58.34-12.7-4.62 23.3-53.72z m-25.56 65.59l12.8 4.66-7.62 41.92c-0.58 3.16 1.46 6.19 4.58 6.88l-8.74 67.18-46.32-16.9 45.3-103.74z m-49.6 117.53l0.97-2.31 48.07 17.54-10.16 78.14c-0.22 1.7 0.3 3.41 1.43 4.7s2.77 2.03 4.48 2.03h0.4l-4.46 32.28-83.16-30.23 42.43-102.15z m8.19 328.78l-8.35 26.71c-0.89 2.85-2.49 5.44-4.66 7.52l-16.66 16.18c-1.61 1.58-4.05 2.1-6.18 1.33l-93.14-33.93c-2.17-0.78-3.67-2.7-3.91-5.02l-2.38-23.08c-0.31-2.93 0.13-5.93 1.3-8.71l10.78-25.86L123 596.28c0.06-0.15 0.11-0.3 0.16-0.45l0.78-1.83 117.88 42.87-17.45 56.26z m15.28-71.41c-0.08 0.56-0.07 1.12 0.01 1.66l-8.52-3.11-1.08-0.4-102.78-37.4 42.69-102.02 0.96-2.28 84.31 30.69-15.59 112.86z m515.98 170.49H268.02l-10.54-160.86 0.89-2.86h507.26l0.6 1.9-10.6 161.82z m6.29-175.64H252.4l2.24-16.21 12.06-87.33 1.68-12.14 5.03-36.44h476.82l5.05 36.6 1.68 12.12 11.75 85.07 2.53 18.33h-9.32z m6.5-107.58l58.92-21.44 25.72-9.38 43.66 104.3-26.01 9.51c-0.16 0.04-0.32 0.09-0.47 0.15l-86.28 31.4c0.1-0.59 0.11-1.2 0.03-1.81l-15.57-112.73z m166.49 173.85v0.01L932.52 706c-0.2 2.23-1.71 4.18-3.85 4.95l-93.17 33.92a6 6 0 0 1-6.22-1.35l-16.67-16.19c-2.08-2-3.67-4.59-4.57-7.49l-8.35-26.7-17.51-56.28 91.73-33.38c0.16-0.04 0.31-0.09 0.47-0.15h0.01l0.14-0.05 25.51-9.27 22.78 54.25 10.8 25.88c1.15 2.77 1.6 5.77 1.29 8.7z" fill="#AF7575" /><path d="M362.68 300.34c0.31 0.05 0.63 0.08 0.96 0.08h23.49c3.3 0 5.97-2.67 5.97-5.96s-2.67-5.96-5.97-5.96h-23.49c-3.3 0-5.97 2.67-5.97 5.96 0 2.96 2.16 5.42 5.01 5.88zM470.1 167.49l-0.04-0.02-22.73-7.33 1.83-5.67 0.04 0.01 22.74 7.34-1.84 5.67z m-45.39-14.65l-0.03-0.01-22.74-7.34 1.83-5.67 0.04 0.02 22.74 7.33-1.84 5.67z m-45.39-14.64l-0.04-0.01-22.74-7.34 1.83-5.67 0.03 0.02 22.74 7.33-1.82 5.67z m-45.39-14.64l-0.04-0.02-22.74-7.33 1.83-5.68 0.04 0.02 22.73 7.33-1.82 5.68zM553.81 167.49l-1.83-5.67 22.77-7.35 1.83 5.67-22.77 7.35z m45.39-14.65l-1.84-5.67 22.78-7.35 1.83 5.67-22.77 7.35z m45.4-14.64l-1.84-5.67 22.78-7.35 1.83 5.67-22.77 7.35z m45.38-14.64l-1.83-5.68 22.78-7.35 1.83 5.68-22.78 7.35z" fill="#AF7575" /><path d="M317.34 605.85h139.6v117.49h-139.6z" fill="#E8EFDC" /><path d="M450.97 729.3H323.3c-6.57 0-11.92-5.35-11.92-11.92V605.85c0-3.29 2.67-5.96 5.96-5.96h139.6c3.29 0 5.96 2.67 5.96 5.96v111.53c-0.01 6.57-5.36 11.92-11.93 11.92zM323.3 611.81v105.57h127.68l-0.01-105.57H323.3z" fill="#AF7575" /><path d="M302.21 563.91h169.84v76.84H302.21z" fill="#E8EFDC" /><path d="M460.13 646.71H314.14c-9.86 0-17.89-8.02-17.89-17.89V563.9c0-3.29 2.67-5.96 5.96-5.96h169.84c3.29 0 5.96 2.67 5.96 5.96v64.92c0.01 9.86-8.02 17.89-17.88 17.89z m-151.96-76.84v58.95c0 3.29 2.67 5.96 5.96 5.96h145.99c3.29 0 5.96-2.67 5.96-5.96v-58.95H308.17z" fill="#AF7575" /><path d="M561.63 605.85h139.6v117.49h-139.6z" fill="#E8EFDC" /><path d="M695.26 729.3H567.59c-6.58 0-11.92-5.35-11.92-11.92V605.85c0-3.29 2.67-5.96 5.96-5.96h139.6c3.29 0 5.96 2.67 5.96 5.96v111.53c0 6.57-5.35 11.92-11.93 11.92zM567.59 611.81v105.57h127.68l-0.01-105.57H567.59z" fill="#AF7575" /><path d="M546.51 563.91h169.84v76.84H546.51z" fill="#E8EFDC" /><path d="M704.43 646.71h-146c-9.86 0-17.89-8.02-17.89-17.89V563.9c0-3.29 2.67-5.96 5.96-5.96h169.84c3.29 0 5.96 2.67 5.96 5.96v64.92c0.01 9.86-8.01 17.89-17.87 17.89z m-151.96-76.84v58.95c0 3.29 2.67 5.96 5.96 5.96h146c3.29 0 5.96-2.67 5.96-5.96v-58.95H552.47z" fill="#AF7575" /><path d="M375.85 21.52h272.21l-136.1 175.22z" fill="#AF7575" /></svg>